# xmcd
#
# Track frame offsets: 
#        150
#        12835
#        34388
#        47100
#        65323
#
# Disc length: 1280 seconds
#
# Revision: 0
# Processed by: cddbd v1.5.1PL0 Copyright (c) Steve Scherf et al.
# Submitted via: ExactAudioCopy v0.95b2
#
DISCID=3b04fe05
DTITLE=Hank Plank and the  2 x 4's - Rocket To Venus
DYEAR=2000
DGENRE=Bluegrass
TTITLE0=Cheatin'!
TTITLE1=Lost My Beer
TTITLE2=Nicole
TTITLE3=One Mile An Hour
TTITLE4=Rocket To Venus
EXTD=
EXTT0=
EXTT1=
EXTT2=
EXTT3=
EXTT4=
PLAYORDER=
